<svg width="28" height="28" viewBox="0 0 28 28" fill="none" xmlns="http://www.w3.org/2000/svg">
<path d="M15.096 3.00079C17.1059 3.00427 17.5238 3.02004 18.5353 3.06619C19.7061 3.11959 20.5057 3.30556 21.2054 3.5775C21.9288 3.85857 22.5422 4.2347 23.1538 4.84622C23.7653 5.45779 24.1414 6.07123 24.4225 6.79458C24.6944 7.49426 24.8804 8.29389 24.9338 9.46471C24.9799 10.4761 24.9957 10.894 24.9992 12.904V15.096C24.9957 17.1059 24.9799 17.5238 24.9338 18.5353C24.8804 19.7061 24.6944 20.5057 24.4225 21.2054C24.1414 21.9288 23.7653 22.5422 23.1538 23.1538C22.5422 23.7653 21.9288 24.1414 21.2054 24.4225C20.5057 24.6944 19.7061 24.8804 18.5353 24.9338C17.5238 24.9799 17.1059 24.9957 15.096 24.9992H12.904C10.894 24.9957 10.4761 24.9799 9.46471 24.9338C8.29389 24.8804 7.49426 24.6944 6.79458 24.4225C6.07123 24.1414 5.45779 23.7653 4.84622 23.1538C4.2347 22.5422 3.85857 21.9288 3.5775 21.2054C3.30556 20.5057 3.11959 19.7061 3.06619 18.5353C3.02004 17.5238 3.00427 17.1059 3.00079 15.096V12.904C3.00427 10.894 3.02004 10.4761 3.06619 9.46471C3.11959 8.29389 3.30556 7.49426 3.5775 6.79458C3.85857 6.07123 4.2347 5.45779 4.84622 4.84622C5.45779 4.2347 6.07123 3.85857 6.79458 3.5775C7.49426 3.30556 8.29389 3.11959 9.46471 3.06619C10.4761 3.02004 10.894 3.00427 12.904 3.00079H15.096ZM14.5719 4.98215H13.4282C11.011 4.98372 10.635 4.99685 9.55505 5.04612C8.48256 5.09502 7.90012 5.27422 7.51251 5.42486C6.99906 5.62441 6.63263 5.86278 6.24772 6.24772C5.86278 6.63263 5.62441 6.99906 5.42486 7.51251C5.27422 7.90012 5.09502 8.48256 5.04612 9.55505C4.99685 10.635 4.98372 11.011 4.98215 13.4282V14.5719C4.98372 16.989 4.99685 17.365 5.04612 18.4449C5.09502 19.5174 5.27422 20.0999 5.42486 20.4875C5.62441 21.0009 5.86282 21.3674 6.24772 21.7523C6.63263 22.1372 6.99906 22.3756 7.51251 22.5751C7.90012 22.7258 8.48256 22.905 9.55505 22.9539C10.5549 22.9995 10.9513 23.0141 12.9234 23.0173H15.0766C17.0487 23.0141 17.4452 22.9995 18.4449 22.9539C19.5174 22.905 20.0999 22.7258 20.4875 22.5751C21.0009 22.3756 21.3674 22.1372 21.7523 21.7523C22.1372 21.3674 22.3756 21.0009 22.5751 20.4875C22.7258 20.0999 22.905 19.5174 22.9539 18.4449C22.9995 17.445 23.0141 17.0485 23.0173 15.0765V12.9235C23.0141 10.9515 22.9995 10.555 22.9539 9.55505C22.905 8.48256 22.7258 7.90012 22.5751 7.51251C22.3756 6.99906 22.1372 6.63263 21.7523 6.24772C21.3674 5.86278 21.0009 5.62441 20.4875 5.42486C20.0999 5.27422 19.5174 5.09502 18.4449 5.04612C17.365 4.99685 16.989 4.98372 14.5719 4.98215ZM13.9965 8.3566C17.1152 8.3566 19.6434 10.8848 19.6434 14.0035C19.6434 17.1222 17.1152 19.6503 13.9965 19.6503C10.8778 19.6503 8.34966 17.1222 8.34966 14.0035C8.34966 10.8848 10.8778 8.3566 13.9965 8.3566ZM13.9965 10.338C11.9721 10.338 10.331 11.9791 10.331 14.0035C10.331 16.0279 11.9721 17.669 13.9965 17.669C16.0209 17.669 17.662 16.0279 17.662 14.0035C17.662 11.9791 16.0209 10.338 13.9965 10.338ZM19.8665 6.8139C20.5953 6.8139 21.1861 7.40471 21.1861 8.1335C21.1861 8.8623 20.5953 9.45307 19.8665 9.45307C19.1377 9.45307 18.5469 8.8623 18.5469 8.1335C18.5469 7.40471 19.1377 6.8139 19.8665 6.8139Z" fill="#D7D7D7"/>
</svg>
