<svg width="28" height="28" viewBox="0 0 28 28" fill="none" xmlns="http://www.w3.org/2000/svg">
<path d="M8.85593 2.33356C9.92343 2.33356 10.9775 2.60014 11.9149 3.10006L11.9141 3.09956C12.4666 2.99389 13.0254 2.9307 13.5861 2.90963L14.0068 2.90172C15.4937 2.90172 16.9368 3.19339 18.2948 3.76914C19.6062 4.32564 20.7851 5.12189 21.7966 6.13631C22.8093 7.15014 23.6032 8.33139 24.1579 9.64681C24.7331 11.0083 25.0242 12.455 25.0242 13.946C25.0242 14.618 24.9612 15.2906 24.841 15.9474C25.38 16.9169 25.6664 18.0136 25.6664 19.1289C25.6664 20.8754 24.9886 22.5175 23.756 23.7518C22.5246 24.9873 20.8872 25.6669 19.1448 25.6669C18.0166 25.6669 16.9118 25.3723 15.9358 24.8193C15.3029 24.9319 14.6537 24.9908 14.0068 24.9908C12.5193 24.9908 11.0755 24.6991 9.71752 24.1216C8.40502 23.5669 7.22727 22.7695 6.2146 21.7556C5.2031 20.7412 4.4086 19.5606 3.85443 18.2451C3.27927 16.8831 2.98818 15.437 2.98818 13.946C2.98818 13.3072 3.04535 12.6679 3.15385 12.042C2.61835 11.0766 2.3331 9.98397 2.3331 8.87214C2.3331 7.12564 3.0121 5.48356 4.24352 4.24864C5.47552 3.01314 7.11352 2.33356 8.85593 2.33356ZM13.8236 6.72956C11.2079 6.72956 8.42193 7.84256 8.42193 10.8082C8.42193 12.2368 8.93118 13.7564 11.7347 14.4611L15.2166 15.332C16.2701 15.5927 16.5338 16.1866 16.5338 16.7226C16.5338 17.614 15.65 18.4849 14.0505 18.4849C10.925 18.4849 11.359 16.0734 9.68368 16.0734C8.93118 16.0734 8.38518 16.5931 8.38518 17.3346C8.38518 18.7806 10.1358 20.7097 14.0505 20.7097C17.7751 20.7097 19.6202 18.9101 19.6202 16.5004C19.6202 14.9441 18.9044 13.2921 16.0817 12.6621L13.5045 12.0886C12.5251 11.8646 11.3958 11.5689 11.3958 10.6426C11.3958 9.71389 12.1879 9.06522 13.6165 9.06522C16.4964 9.06522 16.2328 11.0491 17.6625 11.0491C18.415 11.0491 19.0736 10.6058 19.0736 9.84339C19.0736 8.06422 16.2328 6.72956 13.8236 6.72956Z" fill="#D7D7D7"/>
</svg>
