<svg width="28" height="28" viewBox="0 0 28 28" fill="none" xmlns="http://www.w3.org/2000/svg">
<path d="M17.5898 2.99951C19.7738 2.99951 20.8227 3.20251 21.9135 3.78584C22.8933 4.30526 23.6948 5.1067 24.2142 6.08651C24.7975 7.17734 25.0005 8.22618 25.0005 10.4102V17.5898C25.0005 19.7738 24.7975 20.8227 24.2142 21.9135C23.6948 22.8933 22.8933 23.6948 21.9135 24.2142C20.8227 24.7975 19.7727 25.0005 17.5898 25.0005H10.4102C8.22618 25.0005 7.17734 24.7975 6.08651 24.2142C5.1067 23.6948 4.30526 22.8933 3.78584 21.9135C3.20251 20.8227 2.99951 19.7727 2.99951 17.5898V10.4102C2.99951 8.22618 3.20251 7.17734 3.78584 6.08651C4.30532 5.10674 5.10674 4.30532 6.08651 3.78584C7.17734 3.20251 8.22618 2.99951 10.4102 2.99951H17.5898ZM17.5898 5.00034H10.4102C8.52834 5.00034 7.79101 5.14268 7.02918 5.54868C6.38868 5.89168 5.89168 6.38868 5.54984 7.03034C5.14151 7.79101 5.00034 8.52834 5.00034 10.4102V17.5898C5.00034 19.4717 5.14268 20.209 5.54868 20.9708C5.89168 21.6113 6.38868 22.1083 7.03034 22.4502C7.79101 22.8585 8.52834 22.9997 10.4102 22.9997H17.5898C19.4717 22.9997 20.209 22.8573 20.9708 22.4513C21.6113 22.1083 22.1083 21.6113 22.4502 20.9697C22.8585 20.209 22.9997 19.4717 22.9997 17.5898V10.4102C22.9997 8.52834 22.8573 7.79101 22.4513 7.02918C22.1177 6.39811 21.6013 5.8825 20.9697 5.54984C20.209 5.14151 19.4717 5.00034 17.5898 5.00034ZM9.53168 10.5747C9.88168 10.5747 10.0123 10.7275 10.143 11.1067C10.8127 13.055 11.9397 14.7583 12.404 14.7583C12.5603 14.7583 12.6397 14.693 12.6548 14.3582L12.6572 14.2357V12.222C12.6058 11.2945 12.1135 11.2187 12.1135 10.8897C12.1135 10.7555 12.2138 10.6155 12.3842 10.5817L12.4612 10.5747H14.6102C14.868 10.5747 14.9765 10.6972 14.9975 10.969L15.001 11.0775V13.7865C15.001 14.077 15.127 14.1785 15.2145 14.1785C15.3883 14.1785 15.533 14.077 15.8515 13.7585C16.8362 12.6572 17.5315 10.962 17.5315 10.962C17.5685 10.8592 17.6338 10.769 17.7199 10.7017C17.806 10.6344 17.9093 10.5928 18.018 10.5817L18.1265 10.5747H19.495C19.908 10.5747 19.9955 10.7882 19.908 11.0775C19.7482 11.8125 18.3155 13.8693 18.0962 14.1808L18.0682 14.2217C17.9235 14.4538 17.8652 14.5693 18.0682 14.8295C18.2128 15.0325 18.6912 15.4385 19.0097 15.8153C19.5977 16.4757 20.0398 17.0333 20.1635 17.4172C20.2662 17.7707 20.111 17.9655 19.7832 17.9947L19.6898 17.9982H18.3225C17.801 17.9982 17.6482 17.5828 16.7207 16.6565C15.9098 15.8737 15.5622 15.7722 15.3592 15.7722C15.1118 15.7722 15.0208 15.8352 15.0045 16.1327L15.001 16.24V17.4662C15.001 17.8033 14.8937 17.9982 14.0245 17.9982C12.5755 17.9982 10.9842 17.1185 9.85368 15.4968C8.15851 13.1203 7.69534 11.3237 7.69534 10.962C7.69534 10.7788 7.75834 10.612 8.05584 10.5805L8.16434 10.5747H9.53168Z" fill="#E5E5E5"/>
</svg>
